<svg version="1.1" id="Layer_1" xmlns="http://www.w3.org/2000/svg" xmlns:xlink="http://www.w3.org/1999/xlink" x="0px" y="0px"
	 width="100%" viewBox="0 0 780 459" enable-background="new 0 0 780 459" xml:space="preserve">
<path fill="#FFFFFF" opacity="1.000000" stroke="none" 
	d="
M503.000000,460.000000 
	C335.333344,460.000000 168.166672,460.000000 1.000000,460.000000 
	C1.000000,307.000000 1.000000,154.000000 1.000000,1.000000 
	C261.000000,1.000000 521.000000,1.000000 781.000000,1.000000 
	C781.000000,154.000000 781.000000,307.000000 781.000000,460.000000 
	C688.500000,460.000000 596.000000,460.000000 503.000000,460.000000 
M298.500000,6.996052 
	C201.428268,6.996052 104.356552,6.996052 7.346908,6.996052 
	C7.346908,26.467995 7.346908,45.346600 7.346908,64.227913 
	C263.379608,64.227913 519.061340,64.227913 774.663940,64.227913 
	C774.663940,45.001827 774.663940,26.097147 774.663940,6.996051 
	C616.049438,6.996051 457.774719,6.996051 298.500000,6.996052 
M568.500122,396.452667 
	C381.431152,396.452667 194.362167,396.452667 7.309290,396.452667 
	C7.309290,415.939484 7.309290,434.846161 7.309290,453.735016 
	C263.301971,453.735016 518.981323,453.735016 774.685181,453.735016 
	C774.685181,434.581757 774.685181,415.699097 774.685181,396.452972 
	C706.078186,396.452972 637.789124,396.452972 568.500122,396.452667 
M359.603455,140.853607 
	C367.175293,145.310272 374.747162,149.766953 382.319000,154.223618 
	C382.695648,153.811218 383.072296,153.398819 383.448944,152.986420 
	C378.930481,145.032562 372.400299,138.649033 365.647156,132.540222 
	C340.030243,109.367538 309.901733,96.935066 275.344696,97.144173 
	C198.066238,97.611786 142.398666,158.162354 140.528366,226.968872 
	C138.565048,299.196472 193.922180,358.852448 267.694214,363.604645 
	C302.117249,365.822144 333.010864,355.133209 359.897644,333.397583 
	C368.975098,326.059296 376.813477,317.548065 383.008759,307.412140 
	C380.559052,307.520142 378.752441,308.365387 377.167572,309.516022 
	C338.947388,337.264435 288.132935,338.230316 248.857224,311.918701 
	C198.012604,277.856842 189.032394,209.274399 229.684769,165.497849 
	C262.568420,130.087097 313.329376,120.273994 359.603455,140.853607 
M425.825623,282.524139 
	C425.825623,285.386932 425.825623,288.249695 425.825623,291.112488 
	C426.148865,291.146271 426.472076,291.180084 426.795319,291.213867 
	C435.388763,279.067139 443.982208,266.920380 452.513611,254.861282 
	C467.207550,259.396423 481.359406,263.764282 496.772430,268.521362 
	C487.000916,255.408264 478.091705,243.452408 469.154724,231.459213 
	C477.924591,218.995514 486.464508,206.858658 495.696320,193.738464 
	C481.584229,198.480057 468.669647,202.689453 455.867065,207.215652 
	C452.810791,208.296173 451.176849,207.865189 449.271759,205.233902 
	C442.538544,195.933945 435.543823,186.823181 428.633453,177.651810 
	C427.404602,176.020874 426.105164,174.443085 424.490204,172.400452 
	C424.490204,188.071518 424.490204,202.846848 424.490204,217.961548 
	C410.574615,222.713943 396.478790,227.527924 381.663208,232.587677 
	C383.376312,233.268097 384.391693,233.747604 385.452911,234.081223 
	C397.494293,237.866791 409.535309,241.653885 421.595856,245.377579 
	C423.801880,246.058701 425.240509,246.763489 425.241394,249.659424 
	C425.244690,260.303345 425.601685,270.947205 425.825623,282.524139 
z"/>
<path fill="#ED1E26" opacity="1.000000" stroke="none" 
	d="
M299.000000,6.996052 
	C457.774719,6.996051 616.049438,6.996051 774.663940,6.996051 
	C774.663940,26.097147 774.663940,45.001827 774.663940,64.227913 
	C519.061340,64.227913 263.379608,64.227913 7.346908,64.227913 
	C7.346908,45.346600 7.346908,26.467995 7.346908,6.996052 
	C104.356552,6.996052 201.428268,6.996052 299.000000,6.996052 
z"/>
<path fill="#ED1E26" opacity="1.000000" stroke="none" 
	d="
M569.000122,396.452820 
	C637.789124,396.452972 706.078186,396.452972 774.685181,396.452972 
	C774.685181,415.699097 774.685181,434.581757 774.685181,453.735016 
	C518.981323,453.735016 263.301971,453.735016 7.309290,453.735016 
	C7.309290,434.846161 7.309290,415.939484 7.309290,396.452667 
	C194.362167,396.452667 381.431152,396.452667 569.000122,396.452820 
z"/>
<path fill="#ED1E26" opacity="1.000000" stroke="none" 
	d="
M359.268219,140.682617 
	C313.329376,120.273994 262.568420,130.087097 229.684769,165.497849 
	C189.032394,209.274399 198.012604,277.856842 248.857224,311.918701 
	C288.132935,338.230316 338.947388,337.264435 377.167572,309.516022 
	C378.752441,308.365387 380.559052,307.520142 383.008759,307.412140 
	C376.813477,317.548065 368.975098,326.059296 359.897644,333.397583 
	C333.010864,355.133209 302.117249,365.822144 267.694214,363.604645 
	C193.922180,358.852448 138.565048,299.196472 140.528366,226.968872 
	C142.398666,158.162354 198.066238,97.611786 275.344696,97.144173 
	C309.901733,96.935066 340.030243,109.367538 365.647156,132.540222 
	C372.400299,138.649033 378.930481,145.032562 383.448944,152.986420 
	C383.072296,153.398819 382.695648,153.811218 382.319000,154.223618 
	C374.747162,149.766953 367.175293,145.310272 359.268219,140.682617 
z"/>
<path fill="#ED2027" opacity="1.000000" stroke="none" 
	d="
M425.825592,282.057617 
	C425.601685,270.947205 425.244690,260.303345 425.241394,249.659424 
	C425.240509,246.763489 423.801880,246.058701 421.595856,245.377579 
	C409.535309,241.653885 397.494293,237.866791 385.452911,234.081223 
	C384.391693,233.747604 383.376312,233.268097 381.663208,232.587677 
	C396.478790,227.527924 410.574615,222.713943 424.490204,217.961548 
	C424.490204,202.846848 424.490204,188.071518 424.490204,172.400452 
	C426.105164,174.443085 427.404602,176.020874 428.633453,177.651810 
	C435.543823,186.823181 442.538544,195.933945 449.271759,205.233902 
	C451.176849,207.865189 452.810791,208.296173 455.867065,207.215652 
	C468.669647,202.689453 481.584229,198.480057 495.696320,193.738464 
	C486.464508,206.858658 477.924591,218.995514 469.154724,231.459213 
	C478.091705,243.452408 487.000916,255.408264 496.772430,268.521362 
	C481.359406,263.764282 467.207550,259.396423 452.513611,254.861282 
	C443.982208,266.920380 435.388763,279.067139 426.795319,291.213867 
	C426.472076,291.180084 426.148865,291.146271 425.825623,291.112488 
	C425.825623,288.249695 425.825623,285.386932 425.825592,282.057617 
z"/>
</svg>